<svg width="320" height="72" viewBox="0 0 320 72" fill="none" xmlns="http://www.w3.org/2000/svg">
  <rect x="10" y="18" width="36" height="36" rx="12" fill="#F8FAFC" stroke="#18324B" stroke-width="3"/>
  <path d="M24 28L38 36L24 44V28Z" fill="#F97316"/>
  <path d="M28 8V18" stroke="#18324B" stroke-width="3" stroke-linecap="round"/>
  <path d="M28 54V64" stroke="#18324B" stroke-width="3" stroke-linecap="round"/>
  <path d="M8 36H10" stroke="#18324B" stroke-width="3" stroke-linecap="round"/>
  <path d="M46 36H48" stroke="#18324B" stroke-width="3" stroke-linecap="round"/>
  <path d="M14 22L8 16" stroke="#18324B" stroke-width="2.5" stroke-linecap="round"/>
  <path d="M42 22L48 16" stroke="#18324B" stroke-width="2.5" stroke-linecap="round"/>
  <path d="M14 50L8 56" stroke="#18324B" stroke-width="2.5" stroke-linecap="round"/>
  <path d="M42 50L48 56" stroke="#18324B" stroke-width="2.5" stroke-linecap="round"/>
  <circle cx="28" cy="5" r="3" fill="#18324B"/>
  <circle cx="28" cy="67" r="3" fill="#18324B"/>
  <circle cx="5" cy="15" r="2.5" fill="#18324B"/>
  <circle cx="51" cy="15" r="2.5" fill="#18324B"/>
  <circle cx="5" cy="57" r="2.5" fill="#18324B"/>
  <circle cx="51" cy="57" r="2.5" fill="#18324B"/>
  <text x="70" y="43" font-family="Segoe UI, Arial, sans-serif" font-size="28" font-weight="700" fill="#18324B">Video</text>
  <text x="147" y="43" font-family="Segoe UI, Arial, sans-serif" font-size="28" font-weight="700" fill="#F97316">Automation</text>
</svg>
