<svg width="64" height="64" viewBox="0 0 64 64" fill="none" xmlns="http://www.w3.org/2000/svg">
  <rect x="14" y="14" width="36" height="36" rx="12" fill="#F8FAFC" stroke="#18324B" stroke-width="3"/>
  <path d="M28 24L42 32L28 40V24Z" fill="#F97316"/>
  <path d="M32 7V14" stroke="#18324B" stroke-width="3" stroke-linecap="round"/>
  <path d="M32 50V57" stroke="#18324B" stroke-width="3" stroke-linecap="round"/>
  <path d="M7 32H14" stroke="#18324B" stroke-width="3" stroke-linecap="round"/>
  <path d="M50 32H57" stroke="#18324B" stroke-width="3" stroke-linecap="round"/>
  <circle cx="32" cy="5" r="3" fill="#18324B"/>
  <circle cx="32" cy="59" r="3" fill="#18324B"/>
  <circle cx="5" cy="32" r="3" fill="#18324B"/>
  <circle cx="59" cy="32" r="3" fill="#18324B"/>
  <path d="M18 18L12 12" stroke="#18324B" stroke-width="2.5" stroke-linecap="round"/>
  <path d="M46 18L52 12" stroke="#18324B" stroke-width="2.5" stroke-linecap="round"/>
  <path d="M18 46L12 52" stroke="#18324B" stroke-width="2.5" stroke-linecap="round"/>
  <path d="M46 46L52 52" stroke="#18324B" stroke-width="2.5" stroke-linecap="round"/>
  <circle cx="10.5" cy="10.5" r="2.5" fill="#18324B"/>
  <circle cx="53.5" cy="10.5" r="2.5" fill="#18324B"/>
  <circle cx="10.5" cy="53.5" r="2.5" fill="#18324B"/>
  <circle cx="53.5" cy="53.5" r="2.5" fill="#18324B"/>
</svg>
