<svg width="360" height="72" viewBox="0 0 360 72" fill="none" xmlns="http://www.w3.org/2000/svg">
  <defs>
    <linearGradient id="lockup-accent" x1="22" y1="24" x2="50" y2="48" gradientUnits="userSpaceOnUse">
      <stop stop-color="#FB923C"/>
      <stop offset="1" stop-color="#EA580C"/>
    </linearGradient>
    <linearGradient id="lockup-word-accent" x1="138" y1="24" x2="238" y2="48" gradientUnits="userSpaceOnUse">
      <stop stop-color="#FB923C"/>
      <stop offset="1" stop-color="#EA580C"/>
    </linearGradient>
  </defs>
  <path d="M26 12H22C17.5817 12 14 15.5817 14 20V24" stroke="#29435C" stroke-width="2.5" stroke-linecap="round"/>
  <path d="M46 12H50C54.4183 12 58 15.5817 58 20V24" stroke="#29435C" stroke-width="2.5" stroke-linecap="round"/>
  <path d="M58 44V48C58 52.4183 54.4183 56 50 56H46" stroke="#29435C" stroke-width="2.5" stroke-linecap="round"/>
  <path d="M14 44V48C14 52.4183 17.5817 56 22 56H26" stroke="#29435C" stroke-width="2.5" stroke-linecap="round"/>
  <rect x="21" y="19" width="30" height="30" rx="10" fill="#F8FAFC" stroke="#CBD5E1" stroke-width="1.5"/>
  <rect x="24.5" y="26" width="23" height="16" rx="8" fill="url(#lockup-accent)"/>
  <path d="M33 30.5L40 34L33 37.5V30.5Z" fill="white"/>
  <path d="M44 20.5L47.5 17" stroke="#64748B" stroke-width="2.25" stroke-linecap="round"/>
  <path d="M24 47.5L20.5 51" stroke="#64748B" stroke-width="2.25" stroke-linecap="round"/>
  <circle cx="50.5" cy="14.5" r="3.5" fill="#29435C"/>
  <circle cx="18.5" cy="53.5" r="3.5" fill="#29435C"/>
  <path d="M50.5 14.5V23" stroke="#29435C" stroke-width="2" stroke-linecap="round"/>
  <path d="M18.5 53.5V45" stroke="#29435C" stroke-width="2" stroke-linecap="round"/>
  <text x="82" y="43" font-family="Inter, Segoe UI, Arial, sans-serif" font-size="30" font-weight="700" letter-spacing="-0.02em" fill="#223A52">Video</text>
  <text x="164" y="43" font-family="Inter, Segoe UI, Arial, sans-serif" font-size="30" font-weight="700" letter-spacing="-0.02em" fill="url(#lockup-word-accent)">Automation</text>
  <path d="M166 51H309" stroke="#CBD5E1" stroke-width="2" stroke-linecap="round"/>
  <path d="M166 51H228" stroke="#EA580C" stroke-width="2.5" stroke-linecap="round"/>
  <circle cx="318" cy="51" r="3" fill="#223A52"/>
</svg>
